<?xml version="1.0" encoding="utf-8"?>
<!-- Generator: Adobe Illustrator 22.1.0, SVG Export Plug-In . SVG Version: 6.00 Build 0)  -->
<svg version="1.1" id="Layer_1" xmlns="http://www.w3.org/2000/svg" xmlns:xlink="http://www.w3.org/1999/xlink" x="0px" y="0px"
	 viewBox="0 0 1573 792" style="enable-background:new 0 0 1573 792;" xml:space="preserve">
<style type="text/css">
	.st0{fill:url(#SVGID_1_);}
	.st1{fill:url(#SVGID_2_);}
	.st2{fill:#0386A5;}
</style>
<g>
	<g>
		<linearGradient id="SVGID_1_" gradientUnits="userSpaceOnUse" x1="262.3806" y1="278.5993" x2="262.3806" y2="620.9537">
			<stop  offset="0" style="stop-color:#0ED06D"/>
			<stop  offset="1" style="stop-color:#0177B0"/>
		</linearGradient>
		<path class="st0" d="M402,406.7c0.2-10.7-2.8-12.3-4.9-13.5c-0.3-0.2-0.6-0.3-0.9-0.5c-0.3-0.2-2.5-1.7-6.1-4.2
			c-20.7-14-83.7-56.5-89.2-61.8c-6.6-6.4-14.3-1.8-14.3-1.7c-1.6,0.8-39,20.3-42.2,24.7c-2.7,3.8-1.9,8.6,2.1,12.9
			c3.2,3.4,89.1,60.6,92.9,63.1c3.8,2.5,3.8,5.3,3.8,6.3l0,0.1l0,1.6c0.1,28.3,0.1,37.5,0,40.3c-0.2,6.4-2.8,7-2.8,7
			c-0.1,0-0.1,0-0.1,0.1c-0.3,0.2-34.5,23.4-43.6,29.7c-5.7,4.7-13.1,0-13.2,0c-1.4-0.9-137-94.2-146-100.8
			c-2.7-1.9-5.3-2.6-7.7-1.9c-4.5,1.2-6.8,6.3-6.9,6.5c0,0,0,0.1,0,0.1v49.8c0,0.1,0,7.7,6,11.6c3.8,2.2,146.6,101,152.8,105.7
			c3.4,2.6,6,4.1,8.9,4.1c2.6,0,5.3-1.2,8.8-4.1c0.9-0.6,14.4-9.8,31.5-21.6c27.6-18.9,61.9-42.5,66-45.2c6.8-4.3,5.4-13.5,5.4-13.5
			C402,500.6,401.7,418.6,402,406.7z"/>
		<linearGradient id="SVGID_2_" gradientUnits="userSpaceOnUse" x1="291.2951" y1="278.5993" x2="291.2951" y2="620.9537">
			<stop  offset="0" style="stop-color:#0ED06D"/>
			<stop  offset="1" style="stop-color:#0177B0"/>
		</linearGradient>
		<path class="st1" d="M425,317.7c-3.8-2.2-146.6-101-152.8-105.7c-6.4-4.9-10.3-6-17.7,0c-0.9,0.6-14.6,10-31.9,21.9
			c-27.4,18.8-61.5,42.3-65.6,44.9c-6.8,4.4-5.4,13.5-5.4,13.5c0,0.8,0.2,82.8,0,94.7c-0.2,10.7,2.7,12.3,4.9,13.5
			c0.3,0.2,0.6,0.3,0.9,0.5c0.3,0.2,2.1,1.4,5.1,3.4c56.2,37.9,86.6,59,90.3,62.5c2.7,2.6,5.5,3.4,8,3.4c3.6,0,6.3-1.6,6.3-1.6
			c1.6-0.8,39.1-20.3,42.2-24.7c2.7-3.8,1.9-8.6-2.1-12.9c-3.2-3.4-89-60.6-92.9-63.1c-3.8-2.5-3.8-5.3-3.8-6.3l0-0.1l0-1.6
			c-0.1-28.3-0.1-37.5,0-40.3c0.2-6.4,2.8-7,2.8-7c0.1,0,0.1,0,0.1-0.1c0.3-0.2,34.5-23.4,43.6-29.7c7-5.7,12.9-0.3,13.2,0
			c1.4,0.9,137,94.2,146,100.8c2.7,1.9,5.3,2.6,7.7,2c4.5-1.2,6.8-6.3,6.9-6.5c0,0,0-0.1,0-0.1v-49.8C431,329.2,431,321.6,425,317.7
			z"/>
	</g>
	<g>
		<g>
			<polygon class="st2" points="838.5,353.3 787.3,258.7 726.9,258.7 726.9,388.8 765.9,388.8 764.8,327.9 762.9,283.1 821.6,388.2 
				821.9,388.8 855.9,388.8 914.8,282.4 911.7,388.8 950.3,388.8 950.3,258.7 889,258.7 			"/>
			<path class="st2" d="M704,341c-0.2-2.1-0.7-4.5-1.4-7c-1.9-6-5.7-10.8-11.1-13.8c-5.4-3.1-15.3-5.4-29.3-6.7
				c-6.4-0.6-18.2-1.2-31.6-1.8l-14-0.7c-5.7-0.3-9.6-0.5-13-0.9c-7.9-1.1-12.7-3.1-13.7-6c-0.9-1.9-1.4-4.4-1.7-8.6
				c0-3.5,0.5-6.1,1.5-7.9c0.8-1.7,2.3-3,4.2-4c4.1-2.2,13.4-3.3,27.6-3.3h14.9c14.6,0,20,1.7,22,3.2c2.1,1.6,3.1,4.4,3.1,8.8v6.4
				l39,0.2v-1.2c0-8.2-0.7-13.8-2.3-17.6c-2.1-6.1-6.5-11.1-13.1-14.9c-6.4-3.6-15.3-5.8-27-6.7c-6.2-0.5-18.3-0.7-36.1-0.7
				c-29,0-47.6,2.7-57.1,8.1c-10.2,5.8-15.2,16.3-15,31c0.5,13.9,6.1,23.6,16.6,28.9c4,2,8.6,3.6,13.3,4.4c8.4,1.8,19.6,3,33.3,3.4
				l19.2,0.7c2.8,0,5.1,0.1,7,0.1c1.3,0,2.5,0.1,3.3,0.1c5.2,0.2,10.1,0.8,13.4,1.5l0.8,0.2c1.8,0.5,3.2,0.9,4.1,1.6
				c3.2,2.3,4.7,6.1,4.7,11.6c0,8.1-2.5,13-7.6,15.1c-3.3,1.3-8.4,2.2-15.7,2.6c-1.9,0.2-7.2,0.4-16.1,0.7c-0.9-0.2-2.2-0.2-4.2-0.3
				c-1.1,0-2.3-0.1-3.9-0.2c-6.6,0-12.1-0.4-16.9-0.9c-4.1-0.7-7.1-1.6-9.2-2.8c-2-1.4-3.4-3.4-4.3-6c-0.4-1.2-0.6-3.6-0.8-7
				c0.2-0.9,0.4-2.1,0.4-3.7v-1.2h-38.3v1.2c0,5.8,0.2,10.5,0.7,14.2c1.2,8.7,5.9,15.4,14.3,20.4c6.4,3.6,15.4,6.1,25.9,7.2
				c5.7,0.6,14.4,0.9,28.3,0.9h13.5c27.3,0,45.7-2.3,54.8-6.7c5.8-3.1,10.3-7.3,13.5-13c3.2-6,4.7-12.4,4.4-19.4v0
				c-0.1-1.8-0.2-3.4-0.2-4.8C704.1,343.7,704,342.1,704,341z"/>
			<polygon class="st2" points="1326.2,258.7 1326.2,281.9 1381.3,281.9 1381.3,388.8 1419.9,388.8 1419.9,281.9 1475.7,281.9 
				1475.7,258.7 			"/>
			<path class="st2" d="M1315.2,297.8c0-13.4-4-23.2-11.9-29.1c-8.7-6.7-25.2-10-50.2-10h-94.1v130.1h38.6v-42.2h49.5
				c11.4,0,18.8,1.4,22.5,4.3c3.6,2.8,5.4,8.7,5.4,17.5v20.5h38.8v-25c0-9.8-2.3-17.1-7.2-22.5c-4.8-3.5-11.1-5.9-18.7-7.2
				c8.4-1.6,14.5-4.1,18.7-7.6C1312.3,321.7,1315.2,312,1315.2,297.8z M1197.5,281.9h49.9c16.3,0,22.6,2.3,24.8,4.2
				c2.6,2.7,3.9,7.8,3.9,15.8c0,8.5-1.6,14-4.7,16.8c-4.5,3-12.2,4.6-23,4.6h-51.1V281.9z"/>
			<path class="st2" d="M1027.2,258.7L963,388.8h40l12.2-24.1h80.5l12.2,24.1h39.7l-65.8-130.1H1027.2z M1085.9,343.8h-61.6
				l30.8-62.7L1085.9,343.8z"/>
		</g>
		<g>
			<path class="st2" d="M631.4,477.2h-59.1c-2.3,0-4.3-1.8-4.3-4v-14.6c0-2.2,1.9-4,4.3-4h59.9c2.3,0,4.2,1.8,4.2,4v1.3
				c0,1.8,1,3.7,2.5,4.9c1.5,1.1,3.1,1.5,5.1,1.2l11.1-2.3c0.5-0.1,0.8-0.5,0.8-1v-2.3c0-8.2-1.9-13.9-5.9-17.4
				c-3.7-3.2-10.2-4.8-20-4.8h-55.9c-9.6,0-16.6,1.7-20.1,5.1c-3.7,3.6-5.6,9.9-5.6,18.9v8.8c0,9.1,1.8,15.3,5.6,18.9
				c3.4,3.2,10.1,4.8,20.1,4.8h59.4c2.5,0,4.5,1.7,4.5,4v16.8c0,2.2-2,4-4.5,4h-65.2c-2.3,0-4.2-1.8-4.2-4v-3c0-1.7-0.9-3.3-2.5-4.6
				c-1.7-1.3-3.7-1.7-5.3-1.2l-6.6,1.3c-3,0.6-5.1,3.1-5.1,6.1c0.3,8.5,2.1,14,5.7,17.1c3.7,3.2,10.2,4.8,20,4.8h61.2
				c10,0,16.6-1.6,20.3-4.8c3.7-3.5,5.4-9.4,5.4-18.6v-11.6c0-9.4-1.8-15.5-5.4-18.6C647.9,479,640.9,477.2,631.4,477.2z"/>
			<path class="st2" d="M1111.2,477.2h-59.1c-2.3,0-4.2-1.8-4.2-4v-14.6c0-2.2,1.9-4,4.2-4h59.9c2.3,0,4.2,1.8,4.2,4v1.3
				c0,1.8,0.9,3.7,2.5,4.9c1.5,1.1,3.1,1.5,5.1,1.2l11.1-2.3c0.5-0.1,0.8-0.5,0.8-1v-2.3c0-8.2-1.9-13.9-5.9-17.4
				c-3.7-3.2-10.2-4.8-20-4.8H1054c-9.6,0-16.6,1.7-20.1,5.1c-3.7,3.5-5.6,9.9-5.6,18.9v8.8c0,9.1,1.8,15.3,5.6,18.9
				c3.4,3.2,10.1,4.8,20.1,4.8h59.4c2.5,0,4.5,1.7,4.5,4v16.8c0,2.2-2,4-4.5,4h-65.2c-2.3,0-4.2-1.8-4.2-4v-3c0-1.7-0.9-3.3-2.5-4.6
				c-1.7-1.3-3.7-1.7-5.3-1.2l-6.7,1.3c-3,0.6-5.1,3.1-5.1,6.1c0.3,8.5,2.1,14,5.7,17.1c3.7,3.2,10.2,4.8,20,4.8h61.2
				c10,0,16.6-1.6,20.3-4.8c3.7-3.5,5.4-9.4,5.4-18.6v-11.6c0-9.4-1.8-15.5-5.4-18.6C1127.8,479,1120.7,477.2,1111.2,477.2z"/>
			<path class="st2" d="M773.8,520h-75.7v-26.5h74.3c0.6,0,1.1-0.5,1.1-1.1v-14.3c0-0.6-0.5-1.1-1.1-1.1h-74.3v-22.3h74.8
				c0.6,0,1.1-0.5,1.1-1.1v-14.3c0-0.6-0.5-1.1-1.1-1.1h-93.4c-0.6,0-1.1,0.5-1.1,1.1v95.5c0,0.6,0.5,1.1,1.1,1.1h94.4
				c0.6,0,1.1-0.5,1.1-1.1V521C774.9,520.4,774.4,520,773.8,520z"/>
			<path class="st2" d="M854.5,438.8c-0.2-0.3-0.6-0.5-0.9-0.5h-15.8c-0.4,0-0.8,0.2-0.9,0.6l-52.5,95.5c-0.2,0.3-0.2,0.7,0,1.1
				c0.2,0.3,0.5,0.5,0.9,0.5h17.2c0.4,0,0.8-0.2,1-0.6l11.4-21.5h61.5l11.4,21.5c0.2,0.4,0.6,0.6,1,0.6h18.6c0.4,0,0.7-0.2,0.9-0.5
				c0.2-0.3,0.2-0.7,0-1.1L854.5,438.8z M869.6,498.9h-48.2l24.1-45.5L869.6,498.9z"/>
			<path class="st2" d="M1011.3,519.5h-66.5v-80.1c0-0.6-0.5-1.1-1.1-1.1h-16.4c-0.6,0-1.1,0.5-1.1,1.1v95.5c0,0.6,0.5,1.1,1.1,1.1
				h84c0.6,0,1.1-0.5,1.1-1.1v-14.3C1012.3,519.9,1011.8,519.5,1011.3,519.5z"/>
			<path class="st2" d="M1310.6,435h-54.4c-14.9,0-34.8,2.5-34.8,24.5v52.3c0,9.7,1.9,16,5.7,19.3c3.9,3.3,10.8,4.9,21.1,4.9h62.5
				c10.3,0,17.5-1.7,21.3-5c3.8-3.5,5.7-9.8,5.7-19.2v-4.2c0-4.8-3.5-8.8-8.7-9.8l0,0c-0.2-0.1-0.3-0.2-0.5-0.3
				c-3.3-0.6-6.4,0.2-8.9,2.3c-2.6,2.1-4,4.9-4,7.8v3.4c0,4.4-4,8-8.7,8h-54.4c-4.9,0-8.7-3.5-8.7-8v-51c0-4.6,3.7-8,8.7-8h54.4
				c4.9,0,8.7,3.5,8.7,8v1.3c0,3.3,1.4,5.9,4,7.8c2.3,1.9,5,2.6,8.6,2.3c0.1,0,0.2,0,0.4-0.1l0.4-0.2c5.2-0.9,8.8-4.9,8.8-9.9v-1.8
				c0-9.4-1.8-15.7-5.7-19.3C1327.9,436.8,1320.6,435,1310.6,435z"/>
			<path class="st2" d="M1470.1,440.2c-3.5-3.5-10-5.3-19.9-5.3h-70.9c-9.7,0-16,1.7-19.9,5.3c-3.5,3.5-5.2,9.8-5.2,19.2v52.2
				c0,9.5,1.7,15.7,5.3,19.3c3.6,3.3,10.1,5,19.9,5h70.9c9.8,0,16.3-1.6,19.9-5c3.6-3.7,5.5-10.1,5.5-19.2v-52.2
				C1475.7,450.4,1473.8,443.9,1470.1,440.2z M1373.7,460c0-5.2,4.1-9.1,9.1-9.1h64.2c4.9,0,9.1,3.9,9.1,9.1v51
				c0,4.9-4.2,9.1-9.1,9.1h-64.2c-4.9,0-9.1-4.2-9.1-9.1V460z"/>
		</g>
	</g>
</g>
</svg>
