<?xml version="1.0" encoding="utf-8"?>
<!-- Generator: Adobe Illustrator 19.0.0, SVG Export Plug-In . SVG Version: 6.00 Build 0)  -->
<svg version="1.1" id="Isolation_Mode" xmlns="http://www.w3.org/2000/svg" xmlns:xlink="http://www.w3.org/1999/xlink" x="0px"
	 y="0px" viewBox="41.7 -62.7 181.2 79.7" style="enable-background:new 41.7 -62.7 181.2 79.7;" xml:space="preserve">
<style type="text/css">
	.st0{fill:#FFFFFF;}
</style>
<g>
	<path class="st0" d="M62.6-60l-2.5,5.3c-2.4-1.4-5.7-2.6-7.7-2.6c-1.2,0-1.9,0.4-1.9,1.3c0,3.4,12.1,1.4,12.1,9.7
		c0,4.9-4.3,7.2-9.5,7.2c-3.9,0-8.2-1.4-11.1-3.7l2.6-5.2c2.4,2,6.2,3.5,8.6,3.5c1.4,0,2.4-0.5,2.4-1.5c0-3.5-12.1-1.3-12.1-9.4
		c0-4.4,3.8-7.3,9.6-7.3C56.5-62.7,60.1-61.6,62.6-60z"/>
	<path class="st0" d="M85.4-39.3V-53l-4.6,11.4h-4.5L71.6-53v13.7h-6v-23.1h7.3l5.6,12.8l5.6-12.8h7.3v23.1
		C91.4-39.3,85.4-39.3,85.4-39.3z"/>
	<path class="st0" d="M102.1-43l-1.4,3.7h-7.1l9.9-23.1h7.1l9.5,23.1h-7.3l-1.4-3.7H102.1z M106.8-55.5L104-48h5.6L106.8-55.5z"/>
	<path class="st0" d="M132.8-45.5h-3.6v6.2h-6.9v-23.1h10.8c6.2,0,9.8,3,9.8,8.2c0,3.4-1.4,5.9-3.9,7.3l4.7,7.5h-7.8L132.8-45.5z
		 M133.1-50.8c2,0,3.2-1.1,3.2-3.2c0-2-1.2-3.1-3.2-3.1h-3.9v6.3H133.1z"/>
	<path class="st0" d="M158.6-56.9v17.6h-6.9v-17.6H145v-5.5h20.3v5.5H158.6z"/>
	<path class="st0" d="M55.3-28.9v17.6h-6.9v-17.6h-6.7v-5.5H62v5.5H55.3z"/>
	<path class="st0" d="M75.2-17.5h-3.6v6.2h-6.9v-23h10.8c6.2,0,9.8,3,9.8,8.2c0,3.4-1.4,5.9-3.9,7.3l4.7,7.5h-7.8L75.2-17.5z
		 M75.5-22.7c2,0,3.2-1.1,3.2-3.2c0-2-1.2-3.1-3.2-3.1h-3.9v6.3C71.6-22.7,75.5-22.7,75.5-22.7z"/>
	<path class="st0" d="M95.4-14.9L94-11.2h-7.1l9.9-23.1h7.1l9.5,23.1h-7.3l-1.4-3.7H95.4z M100.1-27.5L97.3-20h5.6L100.1-27.5z"/>
	<path class="st0" d="M135.6-30.4l-4,4.7c-1.4-1.8-3.6-3.1-5.5-3.1c-3.1,0-5.5,2.5-5.5,5.9s2.4,6,5.5,6c1.8,0,3.9-1.1,5.5-2.7l4,4.2
		c-2.5,2.7-6.3,4.4-9.8,4.4c-7,0-12.2-5.1-12.2-11.9c0-6.7,5.3-11.7,12.4-11.7C129.5-34.5,133.3-32.9,135.6-30.4z"/>
	<path class="st0" d="M147.7-19.7l-2.6,2.9v5.5h-6.9v-23h6.9v8.9l7.7-8.9h7.9l-8.4,9.4l8.9,13.7H153L147.7-19.7z"/>
	<path class="st0" d="M163.9-11.2v-23.1h6.9v23.1C170.8-11.2,163.9-11.2,163.9-11.2z"/>
	<path class="st0" d="M191.2-11.2L181.4-24v12.8h-6.3v-23.1h5.9l9.8,12.9v-12.9h6.3v23.1C197.1-11.2,191.2-11.2,191.2-11.2z"/>
	<path class="st0" d="M222.5-23.2v9.3c-2.5,1.7-6.6,3-9.9,3c-7.1,0-12.4-5-12.4-11.8s5.4-11.8,12.9-11.8c3.5,0,7.3,1.4,9.8,3.5
		l-3.9,4.7c-1.6-1.5-3.9-2.5-5.9-2.5c-3.3,0-5.8,2.6-5.8,6.1s2.5,6.1,5.9,6.1c1,0,2.2-0.3,3.5-0.9v-5.6L222.5-23.2L222.5-23.2z"/>
	<path class="st0" d="M62.6-3.9l-2.5,5.3c-2.4-1.4-5.7-2.6-7.7-2.6c-1.2,0-1.9,0.4-1.9,1.3c0,3.4,12.1,1.4,12.1,9.7
		c0,4.9-4.3,7.2-9.5,7.2c-3.9,0-8.2-1.4-11.1-3.7l2.6-5.2c2.4,2,6.2,3.5,8.6,3.5c1.4,0,2.4-0.5,2.4-1.5c0-3.5-12.1-1.3-12.1-9.4
		c0-4.4,3.8-7.3,9.6-7.3C56.5-6.6,60.1-5.5,62.6-3.9z"/>
	<path class="st0" d="M78.7,16.8h-6.9V9.6L63.3-6.3h6.9l5,9.4l4.9-9.4h6.8L78.6,9.5v7.3H78.7z"/>
	<path class="st0" d="M108.4-3.9l-2.5,5.3c-2.4-1.4-5.7-2.6-7.7-2.6c-1.2,0-1.9,0.4-1.9,1.3c0,3.4,12.1,1.4,12.1,9.7
		c0,4.9-4.3,7.2-9.5,7.2c-3.9,0-8.2-1.4-11.1-3.7l2.6-5.2c2.4,2,6.2,3.5,8.6,3.5c1.4,0,2.4-0.5,2.4-1.5c0-3.5-12.1-1.3-12.1-9.4
		c0-4.4,3.8-7.3,9.6-7.3C102.3-6.6,105.9-5.5,108.4-3.9z"/>
	<path class="st0" d="M123.3-0.8v17.6h-6.9V-0.8h-6.7v-5.5H130v5.5C130-0.8,123.3-0.8,123.3-0.8z"/>
	<path class="st0" d="M139.5-1v3.6h10.9v5.3h-10.9v3.7h12.4v5.3h-19.2V-6.2h18.9v5.3L139.5-1L139.5-1z"/>
	<path class="st0" d="M175.6,16.8V3.1L171,14.5h-4.5l-4.6-11.4v13.7h-6V-6.3h7.3l5.6,12.8l5.6-12.8h7.3v23.1H175.6z"/>
</g>
</svg>
